<svg width="12" height="12" viewBox="0 0 12 12" fill="none" xmlns="http://www.w3.org/2000/svg">
<path d="M10.725 5.55499L9.22501 4.80499L7.885 4.13499L7.87 4.11999L7.2 2.77999L6.45 1.27999C6.28 0.939994 5.725 0.939994 5.555 1.27999L4.805 2.77999L4.135 4.11999L4.12 4.13499L2.78 4.80499L1.28 5.55499C1.11 5.63999 1.005 5.81499 1.005 5.99999C1.005 6.18499 1.11 6.35999 1.28 6.44499L2.78 7.19499L4.12 7.86499L4.135 7.87999L4.805 9.21999L5.555 10.72C5.64 10.89 5.815 10.995 6 10.995C6.185 10.995 6.36 10.89 6.445 10.72L7.195 9.21999L7.865 7.87999L7.88 7.86499L9.22001 7.19499L10.72 6.44499C10.89 6.35999 10.995 6.18499 10.995 5.99999C10.995 5.81499 10.89 5.63999 10.72 5.55499H10.725Z" fill="white"/>
</svg>
